<svg xmlns="http://www.w3.org/2000/svg" fill="none" viewBox="0 0 48 48">
    <path fill="#8FBFFA"
          d="M3.53896 8.25718C3.74657 5.70188 5.70187 3.74658 8.25717 3.53897C11.4854 3.27668 16.636 3 24 3C31.364 3 36.5146 3.27667 39.7428 3.53896C42.2981 3.74657 44.2534 5.70187 44.461 8.25717C44.7233 11.4854 45 16.636 45 24C45 31.364 44.7233 36.5146 44.461 39.7428C44.2534 42.2981 42.2981 44.2534 39.7428 44.461C36.5146 44.7233 31.364 45 24 45C16.636 45 11.4854 44.7233 8.25718 44.461C5.70188 44.2534 3.74658 42.2981 3.53897 39.7428C3.27668 36.5146 3 31.364 3 24C3 16.636 3.27667 11.4854 3.53896 8.25718Z"/>
    <path fill="#fff"
          d="M12.8851 10.0887C11.2839 10.1909 10.189 11.4608 10.1358 13.0644C10.0684 15.0956 10 18.5098 10 24.0001C10 29.49 10.0684 32.904 10.1358 34.9353C10.1889 36.5392 11.2842 37.8093 12.8857 37.9114C13.6999 37.9632 14.7373 38 16.0425 38C17.3001 38 18.309 37.9659 19.1092 37.917C20.7556 37.8164 21.8734 36.4908 21.9098 34.8417C21.9549 32.7997 22 29.4065 22 24.0001C22 18.5933 21.9549 15.1999 21.9098 13.158C21.8734 11.5092 20.7559 10.1838 19.1098 10.0831C18.3095 10.0342 17.3004 10 16.0425 10C14.737 10 13.6994 10.0368 12.8851 10.0887Z"/>
    <path stroke="#2859C5" stroke-linecap="round" stroke-linejoin="round" stroke-width="3"
          d="M8.25718 3.53896C5.70188 3.74657 3.74658 5.70187 3.53897 8.25717C3.27668 11.4854 3 16.636 3 24C3 31.364 3.27667 36.5146 3.53896 39.7428C3.74657 42.2981 5.70187 44.2534 8.25716 44.461C11.4854 44.7233 16.636 45 24 45C31.364 45 36.5146 44.7233 39.7428 44.461C42.2981 44.2534 44.2534 42.2981 44.461 39.7428C44.7233 36.5146 45 31.364 45 24C45 16.636 44.7233 11.4854 44.461 8.25718C44.2534 5.70188 42.2981 3.74658 39.7428 3.53897C36.5146 3.27668 31.364 3 24 3C16.636 3 11.4854 3.27667 8.25718 3.53896Z"/>
    <path stroke="#2859C5" stroke-linecap="round" stroke-linejoin="round" stroke-width="3"
          d="M12.8851 37.9113C11.2839 37.8091 10.189 36.5392 10.1358 34.9356C10.0684 32.9044 10 29.4902 10 23.9999C10 18.51 10.0684 15.096 10.1358 13.0647C10.1889 11.4608 11.2842 10.1907 12.8857 10.0886C13.6999 10.0368 14.7373 10 16.0425 10C17.3001 10 18.309 10.0341 19.1092 10.083C20.7556 10.1836 21.8734 11.5092 21.9098 13.1583C21.9549 15.2003 22 18.5935 22 23.9999C22 29.4067 21.9549 32.8001 21.9098 34.842C21.8734 36.4908 20.7559 37.8162 19.1098 37.9169C18.3095 37.9658 17.3004 38 16.0425 38C14.737 38 13.6994 37.9632 12.8851 37.9113Z"/>

</svg>
