<?xml version="1.0" encoding="utf-8"?>
<svg viewBox="0 0 727.02 152.825" width="727.02" height="152.825" xmlns="http://www.w3.org/2000/svg">
  <defs>
    <linearGradient id="color-0-0">
      <stop style="stop-color: rgb(137, 54, 245);" offset="0"/>
      <stop offset="0.7" style="stop-color: rgb(29, 83, 219);"/>
      <stop offset="0.9" style="stop-color: rgb(10, 105, 247);"/>
    </linearGradient>
  </defs>
  <path d="M 116.792 6.454 L 26.792 6.454 C 16.862 6.454 8.792 14.534 8.792 24.454 L 8.792 34.034 C 8.792 38.904 10.802 43.694 14.292 47.184 C 17.702 50.594 22.122 52.424 26.812 52.454 C 32.942 52.444 38.122 49.334 41.092 44.454 C 44.552 49.244 50.352 52.454 56.792 52.454 C 63.042 52.454 68.562 49.244 71.792 44.394 C 75.022 49.244 80.542 52.454 86.792 52.454 C 93.042 52.454 98.552 49.254 101.782 44.404 C 102.522 45.504 103.382 46.534 104.372 47.474 C 107.022 49.994 110.272 51.604 113.792 52.194 L 113.792 126.454 L 70.792 126.454 L 70.792 77.454 C 70.792 70.284 64.962 64.454 57.792 64.454 L 36.792 64.454 C 29.622 64.454 23.792 70.284 23.792 77.454 L 23.792 126.454 L 11.792 126.454 C 10.132 126.454 8.792 127.794 8.792 129.454 C 8.792 131.114 10.132 132.454 11.792 132.454 L 131.792 132.454 C 133.452 132.454 134.792 131.114 134.792 129.454 C 134.792 127.794 133.452 126.454 131.792 126.454 L 119.792 126.454 L 119.792 52.184 C 128.352 50.734 134.792 43.144 134.792 34.024 L 134.792 24.454 C 134.792 14.534 126.722 6.454 116.792 6.454 Z M 37.792 34.454 C 37.792 41.404 33.172 46.444 26.802 46.454 C 26.802 46.454 26.792 46.454 26.792 46.454 C 23.742 46.454 20.802 45.204 18.532 42.934 C 16.152 40.564 14.792 37.314 14.792 34.034 L 14.792 24.454 C 14.792 17.834 20.172 12.454 26.792 12.454 L 37.792 12.454 L 37.792 34.454 Z M 68.792 34.454 C 68.792 41.074 63.412 46.454 56.792 46.454 C 49.862 46.454 43.792 40.844 43.792 34.454 L 43.792 12.454 L 68.792 12.454 L 68.792 34.454 Z M 98.792 34.454 C 98.792 41.074 93.412 46.454 86.792 46.454 C 80.172 46.454 74.792 41.074 74.792 34.454 L 74.792 12.454 L 98.792 12.454 L 98.792 34.454 Z M 64.792 126.454 L 29.792 126.454 L 29.792 77.454 C 29.792 73.594 32.932 70.454 36.792 70.454 L 57.792 70.454 C 61.652 70.454 64.792 73.594 64.792 77.454 L 64.792 126.454 Z M 128.792 34.034 C 128.792 40.584 123.672 46.144 117.372 46.444 C 114.052 46.604 110.902 45.424 108.502 43.144 C 106.112 40.854 104.792 37.764 104.792 34.454 L 104.792 12.454 L 116.792 12.454 C 123.412 12.454 128.792 17.834 128.792 24.454 L 128.792 34.034 Z" style="stroke: url(#color-0-0); stroke-width: 6.8px;" transform="matrix(1.105469, 0, 0, 1.105469, -0.927279, -0.680694)"/>
  <g id="SvgjsG17661" featurekey="8L6ael-0" fill="#383943" style="" transform="matrix(6.957472, 0, 0, 6.957472, 199.11145, -9.934248)">
    <path d="M 4.955 4.9 L 10.855 4.9 C 11.595 4.9 12.195 5.5 12.195 6.24 C 12.195 6.98 11.595 7.58 10.855 7.58 L 4.935 7.58 C 3.955 7.58 3.175 8.38 3.175 9.34 C 3.175 10.32 3.955 11.1 4.935 11.1 L 9.015 11.1 C 11.475 11.1 13.455 13.1 13.455 15.56 C 13.455 18.02 11.475 20 9.015 20 L 2.495 20 C 1.755 20 1.155 19.4 1.155 18.66 C 1.155 17.94 1.735 17.34 2.455 17.32 L 9.015 17.32 C 9.995 17.32 10.775 16.54 10.775 15.56 C 10.775 14.6 9.995 13.8 9.015 13.8 L 4.955 13.8 C 2.495 13.8 0.495 11.82 0.495 9.36 C 0.495 6.9 2.495 4.9 4.955 4.9 Z M 27.121 4.9 C 27.861 4.9 28.461 5.5 28.461 6.22 L 28.461 18.66 C 28.461 19.4 27.861 20 27.121 20 C 26.381 20 25.801 19.4 25.801 18.66 L 25.801 13.76 L 17.681 13.76 L 17.681 18.66 C 17.681 19.4 17.081 20 16.361 20 C 15.621 20 15.021 19.4 15.021 18.66 L 15.021 6.22 C 15.021 5.5 15.621 4.9 16.361 4.9 C 17.081 4.9 17.681 5.5 17.681 6.22 L 17.681 11.08 L 25.801 11.08 L 25.801 6.22 C 25.801 5.5 26.381 4.9 27.121 4.9 Z M 37.967 4.42 C 43.067 4.42 45.987 8.7 45.987 12.46 C 45.987 17.22 42.147 20.48 37.967 20.48 C 33.147 20.48 29.927 16.58 29.927 12.46 C 29.927 8.46 33.187 4.42 37.967 4.42 L 36.967 4.42 L 35.967 4.42 L 36.967 4.42 L 37.967 4.42 L 38.967 4.42 L 39.967 4.42 L 38.967 4.42 L 37.967 4.42 Z M 37.967 7.1 C 35.067 7.1 32.587 9.44 32.587 12.46 C 32.587 15.42 34.987 17.82 37.967 17.82 C 40.847 17.82 43.327 15.46 43.327 12.46 C 43.327 9.56 40.967 7.1 37.967 7.1 Z M 47.713 4.9 L 55.113 4.9 C 57.573 4.9 59.553 6.88 59.553 9.34 C 59.553 11.76 57.633 13.72 55.233 13.8 L 51.453 13.82 C 50.593 13.82 49.933 14.66 49.933 15.56 L 49.933 18.66 C 49.933 19.4 49.333 20 48.593 20 C 47.853 20 47.253 19.4 47.253 18.66 L 47.253 5.36 C 47.253 5.1 47.453 4.9 47.713 4.9 Z M 49.933 7.58 L 49.933 11.46 C 50.473 11.22 51.093 11.1 51.713 11.1 L 55.113 11.1 C 56.093 11.1 56.873 10.32 56.873 9.34 C 56.873 8.38 56.093 7.58 55.113 7.58 L 49.933 7.58 Z" style=""/>
    <path d="M 74.816 5.224 C 75.336 5.764 75.336 6.604 74.816 7.124 L 68.636 13.304 L 68.636 18.604 C 68.636 19.344 68.036 19.944 67.276 19.944 C 66.536 19.944 65.936 19.344 65.936 18.604 L 65.936 13.044 C 65.936 12.904 65.956 12.764 65.976 12.624 L 60.496 7.124 C 59.956 6.604 59.956 5.764 60.496 5.224 C 61.016 4.704 61.856 4.704 62.376 5.224 L 67.656 10.504 L 72.916 5.224 C 73.436 4.704 74.296 4.704 74.816 5.224 Z" style=""/>
  </g>
</svg>