<?xml version="1.0" encoding="utf-8"?>
<svg viewBox="86.954 187.613 152.156 33.529" width="152.156" height="33.529" xmlns="http://www.w3.org/2000/svg">
  <g id="SvgjsG17661" featurekey="8L6ael-0" transform="matrix(2.020202, 0, 0, 2.020202, 86.460808, 179.274857)" fill="#383943">
    <path d="M 4.955 4.9 L 10.855 4.9 C 11.595 4.9 12.195 5.5 12.195 6.24 C 12.195 6.98 11.595 7.58 10.855 7.58 L 4.935 7.58 C 3.955 7.58 3.175 8.38 3.175 9.34 C 3.175 10.32 3.955 11.1 4.935 11.1 L 9.015 11.1 C 11.475 11.1 13.455 13.1 13.455 15.56 C 13.455 18.02 11.475 20 9.015 20 L 2.495 20 C 1.755 20 1.155 19.4 1.155 18.66 C 1.155 17.94 1.735 17.34 2.455 17.32 L 9.015 17.32 C 9.995 17.32 10.775 16.54 10.775 15.56 C 10.775 14.6 9.995 13.8 9.015 13.8 L 4.955 13.8 C 2.495 13.8 0.495 11.82 0.495 9.36 C 0.495 6.9 2.495 4.9 4.955 4.9 Z M 27.121 4.9 C 27.861 4.9 28.461 5.5 28.461 6.22 L 28.461 18.66 C 28.461 19.4 27.861 20 27.121 20 C 26.381 20 25.801 19.4 25.801 18.66 L 25.801 13.76 L 17.681 13.76 L 17.681 18.66 C 17.681 19.4 17.081 20 16.361 20 C 15.621 20 15.021 19.4 15.021 18.66 L 15.021 6.22 C 15.021 5.5 15.621 4.9 16.361 4.9 C 17.081 4.9 17.681 5.5 17.681 6.22 L 17.681 11.08 L 25.801 11.08 L 25.801 6.22 C 25.801 5.5 26.381 4.9 27.121 4.9 Z M 37.967 4.42 C 43.067 4.42 45.987 8.7 45.987 12.46 C 45.987 17.22 42.147 20.48 37.967 20.48 C 33.147 20.48 29.927 16.58 29.927 12.46 C 29.927 8.46 33.187 4.42 37.967 4.42 L 36.967 4.42 L 35.967 4.42 L 36.967 4.42 L 37.967 4.42 L 38.967 4.42 L 39.967 4.42 L 38.967 4.42 L 37.967 4.42 Z M 37.967 7.1 C 35.067 7.1 32.587 9.44 32.587 12.46 C 32.587 15.42 34.987 17.82 37.967 17.82 C 40.847 17.82 43.327 15.46 43.327 12.46 C 43.327 9.56 40.967 7.1 37.967 7.1 Z M 47.713 4.9 L 55.113 4.9 C 57.573 4.9 59.553 6.88 59.553 9.34 C 59.553 11.76 57.633 13.72 55.233 13.8 L 51.453 13.82 C 50.593 13.82 49.933 14.66 49.933 15.56 L 49.933 18.66 C 49.933 19.4 49.333 20 48.593 20 C 47.853 20 47.253 19.4 47.253 18.66 L 47.253 5.36 C 47.253 5.1 47.453 4.9 47.713 4.9 Z M 49.933 7.58 L 49.933 11.46 C 50.473 11.22 51.093 11.1 51.713 11.1 L 55.113 11.1 C 56.093 11.1 56.873 10.32 56.873 9.34 C 56.873 8.38 56.093 7.58 55.113 7.58 L 49.933 7.58 Z" style=""/>
    <path d="M 74.816 5.224 C 75.336 5.764 75.336 6.604 74.816 7.124 L 68.636 13.304 L 68.636 18.604 C 68.636 19.344 68.036 19.944 67.276 19.944 C 66.536 19.944 65.936 19.344 65.936 18.604 L 65.936 13.044 C 65.936 12.904 65.956 12.764 65.976 12.624 L 60.496 7.124 C 59.956 6.604 59.956 5.764 60.496 5.224 C 61.016 4.704 61.856 4.704 62.376 5.224 L 67.656 10.504 L 72.916 5.224 C 73.436 4.704 74.296 4.704 74.816 5.224 Z" style=""/>
  </g>
</svg>