<?xml version="1.0" encoding="utf-8"?>
<svg viewBox="17.165 31.008 254.708 255.259" width="254.708" height="255.259" xmlns="http://www.w3.org/2000/svg" xmlns:xlink="http://www.w3.org/1999/xlink">
  <defs>
    <linearGradient id="color-0-0-0" gradientUnits="userSpaceOnUse" x1="71.792" y1="6.454" x2="71.792" y2="132.454" gradientTransform="matrix(1.105469, 0, 0, 1.105469, 63.061562, 33.757835)" xlink:href="#color-0-0"/>
    <linearGradient id="color-0-0">
      <stop style="stop-color: rgb(137, 54, 245);" offset="0"/>
      <stop offset="0.026" style="stop-color: rgb(133, 55, 244);"/>
      <stop offset="0.7" style="stop-color: rgb(29, 83, 219);"/>
      <stop offset="1" style="stop-color: rgb(10, 105, 247);"/>
    </linearGradient>
  </defs>
  <path d="M 192.171 40.893 L 92.679 40.893 C 81.702 40.893 72.781 49.825 72.781 60.791 L 72.781 71.382 C 72.781 76.765 75.003 82.061 78.861 85.919 C 82.63 89.688 87.517 91.711 92.701 91.745 C 99.478 91.734 105.204 88.295 108.487 82.901 C 112.312 88.196 118.724 91.745 125.843 91.745 C 132.752 91.745 138.855 88.196 142.425 82.834 C 145.996 88.196 152.098 91.745 159.007 91.745 C 165.916 91.745 172.008 88.207 175.578 82.846 C 176.396 84.062 177.347 85.2 178.441 86.239 C 181.371 89.025 184.964 90.805 188.855 91.457 L 188.855 173.549 L 141.32 173.549 L 141.32 119.381 C 141.32 111.455 134.875 105.01 126.949 105.01 L 103.734 105.01 C 95.808 105.01 89.363 111.455 89.363 119.381 L 89.363 173.549 L 76.097 173.549 C 74.262 173.549 72.781 175.031 72.781 176.866 C 72.781 178.701 74.262 180.182 76.097 180.182 L 208.753 180.182 C 210.588 180.182 212.07 178.701 212.07 176.866 C 212.07 175.031 210.588 173.549 208.753 173.549 L 195.488 173.549 L 195.488 91.446 C 204.951 89.843 212.07 81.453 212.07 71.371 L 212.07 60.791 C 212.07 49.825 203.149 40.893 192.171 40.893 Z M 104.839 71.846 C 104.839 79.529 99.732 85.101 92.69 85.112 C 92.69 85.112 92.679 85.112 92.679 85.112 C 89.307 85.112 86.057 83.73 83.548 81.22 C 80.917 78.601 79.413 75.008 79.413 71.382 L 79.413 60.791 C 79.413 53.473 85.361 47.526 92.679 47.526 L 104.839 47.526 L 104.839 71.846 Z M 139.109 71.846 C 139.109 79.164 133.161 85.112 125.843 85.112 C 118.182 85.112 111.472 78.91 111.472 71.846 L 111.472 47.526 L 139.109 47.526 L 139.109 71.846 Z M 172.273 71.846 C 172.273 79.164 166.325 85.112 159.007 85.112 C 151.689 85.112 145.742 79.164 145.742 71.846 L 145.742 47.526 L 172.273 47.526 L 172.273 71.846 Z M 134.687 173.549 L 95.995 173.549 L 95.995 119.381 C 95.995 115.114 99.467 111.643 103.734 111.643 L 126.949 111.643 C 131.216 111.643 134.687 115.114 134.687 119.381 L 134.687 173.549 Z M 205.437 71.382 C 205.437 78.623 199.777 84.769 192.812 85.101 C 189.142 85.278 185.66 83.973 183.007 81.453 C 180.365 78.921 178.906 75.505 178.906 71.846 L 178.906 47.526 L 192.171 47.526 C 199.49 47.526 205.437 53.473 205.437 60.791 L 205.437 71.382 Z" style="stroke: url(#color-0-0); stroke-width: 6.8px; fill: url(#color-0-0-0);"/>
  <g id="SvgjsG17661" fill="#383943" style="" transform="matrix(3.324978, 0, 0, 3.199323, 19.279305, 205.211639)">
    <path d="M 4.955 4.9 L 10.855 4.9 C 11.595 4.9 12.195 5.5 12.195 6.24 C 12.195 6.98 11.595 7.58 10.855 7.58 L 4.935 7.58 C 3.955 7.58 3.175 8.38 3.175 9.34 C 3.175 10.32 3.955 11.1 4.935 11.1 L 9.015 11.1 C 11.475 11.1 13.455 13.1 13.455 15.56 C 13.455 18.02 11.475 20 9.015 20 L 2.495 20 C 1.755 20 1.155 19.4 1.155 18.66 C 1.155 17.94 1.735 17.34 2.455 17.32 L 9.015 17.32 C 9.995 17.32 10.775 16.54 10.775 15.56 C 10.775 14.6 9.995 13.8 9.015 13.8 L 4.955 13.8 C 2.495 13.8 0.495 11.82 0.495 9.36 C 0.495 6.9 2.495 4.9 4.955 4.9 Z M 27.121 4.9 C 27.861 4.9 28.461 5.5 28.461 6.22 L 28.461 18.66 C 28.461 19.4 27.861 20 27.121 20 C 26.381 20 25.801 19.4 25.801 18.66 L 25.801 13.76 L 17.681 13.76 L 17.681 18.66 C 17.681 19.4 17.081 20 16.361 20 C 15.621 20 15.021 19.4 15.021 18.66 L 15.021 6.22 C 15.021 5.5 15.621 4.9 16.361 4.9 C 17.081 4.9 17.681 5.5 17.681 6.22 L 17.681 11.08 L 25.801 11.08 L 25.801 6.22 C 25.801 5.5 26.381 4.9 27.121 4.9 Z M 37.967 4.42 C 43.067 4.42 45.987 8.7 45.987 12.46 C 45.987 17.22 42.147 20.48 37.967 20.48 C 33.147 20.48 29.927 16.58 29.927 12.46 C 29.927 8.46 33.187 4.42 37.967 4.42 L 36.967 4.42 L 35.967 4.42 L 36.967 4.42 L 37.967 4.42 L 38.967 4.42 L 39.967 4.42 L 38.967 4.42 L 37.967 4.42 Z M 37.967 7.1 C 35.067 7.1 32.587 9.44 32.587 12.46 C 32.587 15.42 34.987 17.82 37.967 17.82 C 40.847 17.82 43.327 15.46 43.327 12.46 C 43.327 9.56 40.967 7.1 37.967 7.1 Z M 47.713 4.9 L 55.113 4.9 C 57.573 4.9 59.553 6.88 59.553 9.34 C 59.553 11.76 57.633 13.72 55.233 13.8 L 51.453 13.82 C 50.593 13.82 49.933 14.66 49.933 15.56 L 49.933 18.66 C 49.933 19.4 49.333 20 48.593 20 C 47.853 20 47.253 19.4 47.253 18.66 L 47.253 5.36 C 47.253 5.1 47.453 4.9 47.713 4.9 Z M 49.933 7.58 L 49.933 11.46 C 50.473 11.22 51.093 11.1 51.713 11.1 L 55.113 11.1 C 56.093 11.1 56.873 10.32 56.873 9.34 C 56.873 8.38 56.093 7.58 55.113 7.58 L 49.933 7.58 Z" style=""/>
    <path d="M 74.816 5.224 C 75.336 5.764 75.336 6.604 74.816 7.124 L 68.636 13.304 L 68.636 18.604 C 68.636 19.344 68.036 19.944 67.276 19.944 C 66.536 19.944 65.936 19.344 65.936 18.604 L 65.936 13.044 C 65.936 12.904 65.956 12.764 65.976 12.624 L 60.496 7.124 C 59.956 6.604 59.956 5.764 60.496 5.224 C 61.016 4.704 61.856 4.704 62.376 5.224 L 67.656 10.504 L 72.916 5.224 C 73.436 4.704 74.296 4.704 74.816 5.224 Z" style=""/>
  </g>
</svg>