<?xml version="1.0" encoding="utf-8"?>
<svg viewBox="145.626 -2.215 267.995 256.369" width="267.995" height="256.369" xmlns="http://www.w3.org/2000/svg" xmlns:xlink="http://www.w3.org/1999/xlink">
  <defs>
    <linearGradient id="color-0-0-0" gradientUnits="userSpaceOnUse" x1="71.792" y1="6.454" x2="71.792" y2="132.454" gradientTransform="matrix(1.105469, 0, 0, 1.105469, 195.072723, -0.680694)" xlink:href="#color-0-0"/>
    <linearGradient id="color-0-0">
      <stop style="stop-color: rgb(46, 240, 204);" offset="0"/>
      <stop offset="0.6" style="stop-color: rgb(41, 232, 242);"/>
      <stop offset="1" style="stop-color: rgb(51, 187, 245);"/>
    </linearGradient>
  </defs>
  <path d="M 324.183 6.454 L 224.69 6.454 C 213.713 6.454 204.792 15.386 204.792 26.352 L 204.792 36.943 C 204.792 42.326 207.014 47.622 210.872 51.48 C 214.642 55.249 219.528 57.272 224.713 57.306 C 231.489 57.295 237.215 53.857 240.499 48.462 C 244.324 53.757 250.735 57.306 257.855 57.306 C 264.764 57.306 270.866 53.757 274.437 48.395 C 278.007 53.757 284.109 57.306 291.019 57.306 C 297.928 57.306 304.019 53.768 307.59 48.407 C 308.408 49.623 309.358 50.761 310.453 51.8 C 313.382 54.586 316.975 56.366 320.866 57.018 L 320.866 139.11 L 273.331 139.11 L 273.331 84.942 C 273.331 77.016 266.886 70.571 258.96 70.571 L 235.745 70.571 C 227.819 70.571 221.374 77.016 221.374 84.942 L 221.374 139.11 L 208.108 139.11 C 206.273 139.11 204.792 140.592 204.792 142.427 C 204.792 144.262 206.273 145.743 208.108 145.743 L 340.765 145.743 C 342.6 145.743 344.081 144.262 344.081 142.427 C 344.081 140.592 342.6 139.11 340.765 139.11 L 327.499 139.11 L 327.499 57.007 C 336.962 55.404 344.081 47.014 344.081 36.932 L 344.081 26.352 C 344.081 15.386 335.16 6.454 324.183 6.454 Z M 236.851 37.407 C 236.851 45.09 231.743 50.662 224.702 50.673 C 224.702 50.673 224.69 50.673 224.69 50.673 C 221.319 50.673 218.069 49.291 215.559 46.782 C 212.928 44.162 211.425 40.569 211.425 36.943 L 211.425 26.352 C 211.425 19.034 217.372 13.087 224.69 13.087 L 236.851 13.087 L 236.851 37.407 Z M 271.12 37.407 C 271.12 44.725 265.173 50.673 257.855 50.673 C 250.194 50.673 243.483 44.471 243.483 37.407 L 243.483 13.087 L 271.12 13.087 L 271.12 37.407 Z M 304.284 37.407 C 304.284 44.725 298.337 50.673 291.019 50.673 C 283.7 50.673 277.753 44.725 277.753 37.407 L 277.753 13.087 L 304.284 13.087 L 304.284 37.407 Z M 266.698 139.11 L 228.007 139.11 L 228.007 84.942 C 228.007 80.675 231.478 77.204 235.745 77.204 L 258.96 77.204 C 263.227 77.204 266.698 80.675 266.698 84.942 L 266.698 139.11 Z M 337.448 36.943 C 337.448 44.184 331.788 50.33 324.824 50.662 C 321.154 50.839 317.671 49.534 315.018 47.014 C 312.376 44.482 310.917 41.066 310.917 37.407 L 310.917 13.087 L 324.183 13.087 C 331.501 13.087 337.448 19.034 337.448 26.352 L 337.448 36.943 Z" style="stroke: url(#color-0-0); stroke-width: 6.8px; fill: url(#color-0-0-0);"/>
  <g id="SvgjsG17661" fill="#383943" style="" transform="matrix(3.504136, 0, 0, 3.371711, 147.110977, 169.779709)">
    <path d="M 4.955 4.9 L 10.855 4.9 C 11.595 4.9 12.195 5.5 12.195 6.24 C 12.195 6.98 11.595 7.58 10.855 7.58 L 4.935 7.58 C 3.955 7.58 3.175 8.38 3.175 9.34 C 3.175 10.32 3.955 11.1 4.935 11.1 L 9.015 11.1 C 11.475 11.1 13.455 13.1 13.455 15.56 C 13.455 18.02 11.475 20 9.015 20 L 2.495 20 C 1.755 20 1.155 19.4 1.155 18.66 C 1.155 17.94 1.735 17.34 2.455 17.32 L 9.015 17.32 C 9.995 17.32 10.775 16.54 10.775 15.56 C 10.775 14.6 9.995 13.8 9.015 13.8 L 4.955 13.8 C 2.495 13.8 0.495 11.82 0.495 9.36 C 0.495 6.9 2.495 4.9 4.955 4.9 Z M 27.121 4.9 C 27.861 4.9 28.461 5.5 28.461 6.22 L 28.461 18.66 C 28.461 19.4 27.861 20 27.121 20 C 26.381 20 25.801 19.4 25.801 18.66 L 25.801 13.76 L 17.681 13.76 L 17.681 18.66 C 17.681 19.4 17.081 20 16.361 20 C 15.621 20 15.021 19.4 15.021 18.66 L 15.021 6.22 C 15.021 5.5 15.621 4.9 16.361 4.9 C 17.081 4.9 17.681 5.5 17.681 6.22 L 17.681 11.08 L 25.801 11.08 L 25.801 6.22 C 25.801 5.5 26.381 4.9 27.121 4.9 Z M 37.967 4.42 C 43.067 4.42 45.987 8.7 45.987 12.46 C 45.987 17.22 42.147 20.48 37.967 20.48 C 33.147 20.48 29.927 16.58 29.927 12.46 C 29.927 8.46 33.187 4.42 37.967 4.42 L 36.967 4.42 L 35.967 4.42 L 36.967 4.42 L 37.967 4.42 L 38.967 4.42 L 39.967 4.42 L 38.967 4.42 L 37.967 4.42 Z M 37.967 7.1 C 35.067 7.1 32.587 9.44 32.587 12.46 C 32.587 15.42 34.987 17.82 37.967 17.82 C 40.847 17.82 43.327 15.46 43.327 12.46 C 43.327 9.56 40.967 7.1 37.967 7.1 Z M 47.713 4.9 L 55.113 4.9 C 57.573 4.9 59.553 6.88 59.553 9.34 C 59.553 11.76 57.633 13.72 55.233 13.8 L 51.453 13.82 C 50.593 13.82 49.933 14.66 49.933 15.56 L 49.933 18.66 C 49.933 19.4 49.333 20 48.593 20 C 47.853 20 47.253 19.4 47.253 18.66 L 47.253 5.36 C 47.253 5.1 47.453 4.9 47.713 4.9 Z M 49.933 7.58 L 49.933 11.46 C 50.473 11.22 51.093 11.1 51.713 11.1 L 55.113 11.1 C 56.093 11.1 56.873 10.32 56.873 9.34 C 56.873 8.38 56.093 7.58 55.113 7.58 L 49.933 7.58 Z" style="fill: rgb(203, 227, 246);"/>
    <path d="M 74.816 5.224 C 75.336 5.764 75.336 6.604 74.816 7.124 L 68.636 13.304 L 68.636 18.604 C 68.636 19.344 68.036 19.944 67.276 19.944 C 66.536 19.944 65.936 19.344 65.936 18.604 L 65.936 13.044 C 65.936 12.904 65.956 12.764 65.976 12.624 L 60.496 7.124 C 59.956 6.604 59.956 5.764 60.496 5.224 C 61.016 4.704 61.856 4.704 62.376 5.224 L 67.656 10.504 L 72.916 5.224 C 73.436 4.704 74.296 4.704 74.816 5.224 Z" style="fill: rgb(203, 227, 246);"/>
  </g>
</svg>