<?xml version="1.0" encoding="utf-8"?>
<svg viewBox="86.461 188.204 177.778 32.445" xmlns="http://www.w3.org/2000/svg">

  <g id="SvgjsG17660" featurekey="aMgJeN-0" transform="matrix(0.892857, 0, 0, 0.892857, 142.317954, 89.597)" fill="#383943"/>
  <g id="SvgjsG17661" featurekey="8L6ael-0" transform="matrix(2.020202, 0, 0, 2.020202, 86.46081, 179.274852)" fill="#383943">
    <path d="M 4.46 4.9 L 10.36 4.9 C 11.1 4.9 11.7 5.5 11.7 6.24 C 11.7 6.98 11.1 7.58 10.36 7.58 L 4.44 7.58 C 3.46 7.58 2.68 8.38 2.68 9.34 C 2.68 10.32 3.46 11.1 4.44 11.1 L 8.52 11.1 C 10.98 11.1 12.96 13.1 12.96 15.56 C 12.96 18.02 10.98 20 8.52 20 L 2 20 C 1.26 20 0.66 19.4 0.66 18.66 C 0.66 17.94 1.24 17.34 1.96 17.32 L 8.52 17.32 C 9.5 17.32 10.28 16.54 10.28 15.56 C 10.28 14.6 9.5 13.8 8.52 13.8 L 4.46 13.8 C 2 13.8 0 11.82 0 9.36 C 0 6.9 2 4.9 4.46 4.9 Z M 26.626 4.9 C 27.366 4.9 27.966 5.5 27.966 6.22 L 27.966 18.66 C 27.966 19.4 27.366 20 26.626 20 C 25.886 20 25.306 19.4 25.306 18.66 L 25.306 13.76 L 17.186 13.76 L 17.186 18.66 C 17.186 19.4 16.586 20 15.866 20 C 15.126 20 14.526 19.4 14.526 18.66 L 14.526 6.22 C 14.526 5.5 15.126 4.9 15.866 4.9 C 16.586 4.9 17.186 5.5 17.186 6.22 L 17.186 11.08 L 25.306 11.08 L 25.306 6.22 C 25.306 5.5 25.886 4.9 26.626 4.9 Z M 37.472 4.42 C 42.572 4.42 45.492 8.7 45.492 12.46 C 45.492 17.22 41.652 20.48 37.472 20.48 C 32.652 20.48 29.432 16.58 29.432 12.46 C 29.432 8.46 32.692 4.42 37.472 4.42 L 36.472 4.42 L 35.472 4.42 L 36.472 4.42 L 37.472 4.42 L 38.472 4.42 L 39.472 4.42 L 38.472 4.42 L 37.472 4.42 Z M 37.472 7.1 C 34.572 7.1 32.092 9.44 32.092 12.46 C 32.092 15.42 34.492 17.82 37.472 17.82 C 40.352 17.82 42.832 15.46 42.832 12.46 C 42.832 9.56 40.472 7.1 37.472 7.1 Z M 47.218 4.9 L 54.618 4.9 C 57.078 4.9 59.058 6.88 59.058 9.34 C 59.058 11.76 57.138 13.72 54.738 13.8 L 50.958 13.82 C 50.098 13.82 49.438 14.66 49.438 15.56 L 49.438 18.66 C 49.438 19.4 48.838 20 48.098 20 C 47.358 20 46.758 19.4 46.758 18.66 L 46.758 5.36 C 46.758 5.1 46.958 4.9 47.218 4.9 Z M 49.438 7.58 L 49.438 11.46 C 49.978 11.22 50.598 11.1 51.218 11.1 L 54.618 11.1 C 55.598 11.1 56.378 10.32 56.378 9.34 C 56.378 8.38 55.598 7.58 54.618 7.58 L 49.438 7.58 Z M 60.784 4.9 L 68.184 4.9 C 70.644 4.9 72.624 6.88 72.624 9.34 C 72.624 11.76 70.704 13.72 68.304 13.8 L 64.524 13.82 C 63.664 13.82 63.004 14.66 63.004 15.56 L 63.004 18.66 C 63.004 19.4 62.404 20 61.664 20 C 60.924 20 60.324 19.4 60.324 18.66 L 60.324 5.36 C 60.324 5.1 60.524 4.9 60.784 4.9 Z M 63.004 7.58 L 63.004 11.46 C 63.544 11.22 64.164 11.1 64.784 11.1 L 68.184 11.1 C 69.164 11.1 69.944 10.32 69.944 9.34 C 69.944 8.38 69.164 7.58 68.184 7.58 L 63.004 7.58 Z M 87.61 5.28 C 88.13 5.82 88.13 6.66 87.61 7.18 L 81.43 13.36 L 81.43 18.66 C 81.43 19.4 80.83 20 80.07 20 C 79.33 20 78.73 19.4 78.73 18.66 L 78.73 13.1 C 78.73 12.96 78.75 12.82 78.77 12.68 L 73.29 7.18 C 72.75 6.66 72.75 5.82 73.29 5.28 C 73.81 4.76 74.65 4.76 75.17 5.28 L 80.45 10.56 L 85.71 5.28 C 86.23 4.76 87.09 4.76 87.61 5.28 Z" style=""/>
  </g>
</svg>