<?xml version="1.0" encoding="utf-8"?>
<svg viewBox="-71.624 85.815 132.393 130.359" width="132.393" height="130.359" xmlns="http://www.w3.org/2000/svg">
  <g transform="matrix(1, 0, 0, 1, -157.475235, -81.890663)">
    <path class="st1" d="M139.8,171.8c-11.2,0-20.3,9-20.4,20.2h75.4c11.3,0,20.4-9.1,20.4-20.4h-75.4V171.8z" style="fill: rgb(4, 171, 97);"/>
    <path class="st1" d="M119.4,192c0-11.3,9.1-20.4,20.4-20.4l0,0v75.4c0,11.3-9.1,20.4-20.4,20.4l0,0L119.4,192z" style="fill: rgb(4, 171, 97);"/>
    <path class="st2" d="M146.2,198.8v20.4h23.6c11.3,0,20.4-9.1,20.4-20.4H146.2L146.2,198.8z" style="fill: rgb(251, 176, 22);"/>
    <path class="st2" d="M92,219.2c0-11.3,9.1-20.4,20.4-20.4l0,0v75.4c0,11.3-9.1,20.4-20.4,20.4l0,0V219.2z" style="fill: rgb(251, 176, 22);"/>
  </g>
</svg>