<?xml version="1.0" encoding="utf-8"?>
<svg viewBox="156.858 62.169 133.097 133.603" xmlns="http://www.w3.org/2000/svg"
     xmlns:xlink="http://www.w3.org/1999/xlink" xmlns:bx="https://boxy-svg.com">
    <defs>
        <linearGradient id="color-0-0" bx:pinned="true">
            <stop style="stop-color: rgb(137, 54, 245);" offset="0"/>
            <stop offset="0.7" style="stop-color: rgb(29, 83, 219);"/>
            <stop offset="0.9" style="stop-color: rgb(10, 105, 247);"/>
        </linearGradient>
        <linearGradient id="color-0-0" gradientUnits="userSpaceOnUse" x1="64" y1="1" x2="64" y2="127" spreadMethod="pad"
                        xlink:href="#color-0"/>
    </defs>
    <path d="M109,1H19C9.07,1,1,9.08,1,19v9.58c0,4.87,2.01,9.66,5.5,13.15c3.41,3.41,7.83,5.24,12.52,5.27 c6.13-0.01,11.31-3.12,14.28-8c3.46,4.79,9.26,8,15.7,8c6.25,0,11.77-3.21,15-8.06C67.23,43.79,72.75,47,79,47 c6.25,0,11.76-3.2,14.99-8.05c0.74,1.1,1.6,2.13,2.59,3.07c2.65,2.52,5.9,4.13,9.42,4.72V121H63V72c0-7.17-5.83-13-13-13H29 c-7.17,0-13,5.83-13,13v49H4c-1.66,0-3,1.34-3,3s1.34,3,3,3h120c1.66,0,3-1.34,3-3s-1.34-3-3-3h-12V46.73 c8.56-1.45,15-9.04,15-18.16V19C127,9.08,118.93,1,109,1z M30,29c0,6.95-4.62,11.99-10.99,12c0,0-0.01,0-0.01,0 c-3.05,0-5.99-1.25-8.26-3.52C8.36,35.11,7,31.86,7,28.58V19c0-6.62,5.38-12,12-12h11V29z M61,29c0,6.62-5.38,12-12,12 c-6.93,0-13-5.61-13-12V7h25V29z M91,29c0,6.62-5.38,12-12,12s-12-5.38-12-12V7h24V29z M57,121H22V72c0-3.86,3.14-7,7-7h21 c3.86,0,7,3.14,7,7V121z M121,28.58c0,6.55-5.12,12.11-11.42,12.41c-3.32,0.16-6.47-1.02-8.87-3.3C98.32,35.4,97,32.31,97,29V7h12 c6.62,0,12,5.38,12,12V28.58z"
          transform="matrix(1, 0, 0, 1, 159.277908, 64.859856)" style="stroke: url(#color-0-0); stroke-width: 6.8px;"/>
</svg>